{
  "title": "Fast &amp; Furious 7 (2015) - IcTv  Exclusive -={SPARROW}=-",
  "uid": 11794368,
  "size": 727556086,
  "categoryP": "video",
  "categoryS": "other",
  "magnet": "?xt=urn:btih:d418a5e6e3ed8911e75bb08faaa376a8ba042530&amp;dn=Fast+%26amp%3B+Furious+7+%282015%29+-+IcTv++Exclusive+-%3D%7BSPARROW%7D%3D-&amp;tr=udp%3A%2F%2Ftracker.openbittorrent.com%3A80&amp;tr=udp%3A%2F%2Fopen.demonii.com%3A1337&amp;tr=udp%3A%2F%2Ftracker.coppersurfer.tk%3A6969&amp;tr=udp%3A%2F%2Fexodus.desync.com%3A6969",
  "seeders": 97,
  "leechers": 2,
  "uploader": "SS132203",
  "files": 3,
  "time": 1428073460,
  "description": "Fast &amp; Furious 7 (2015) - IcTv LotterY Exclusive -={SPARROW}=-\n &lt;a href=&quot;\nhttp://imgsparrow.co/images/2015/04/03/ba45e47f9d6c34c04f1ebcd36bea0e17.jpg&quot; rel=&quot;nofollow&quot; target=&quot;_NEW&quot;&gt;\nhttp://imgsparrow.co/images/2015/04/03/ba45e47f9d6c34c04f1ebcd36bea0e17.jpg&lt;/a&gt;\n &lt;a href=&quot;\nhttp://imgsparrow.org/images/2015/02/22/plot.png&quot; rel=&quot;nofollow&quot; target=&quot;_NEW&quot;&gt;\nhttp://imgsparrow.org/images/2015/02/22/plot.png&lt;/a&gt;\n\nPG-13  |  Action, Crime, Thriller  |  3 April 2015 (USA)\nPlot : Deckard Shaw seeks revenge against Dominic Toretto and his family for the death of his brother.\nDirector :James Wan\nWriters :Chris Morgan, Gary Scott Thompson\nStars :Vin Diesel, Paul Walker, Dwayne Johnson\n &lt;a href=&quot;\nhttp://imgsparrow.org/images/2015/02/22/info.png&quot; rel=&quot;nofollow&quot; target=&quot;_NEW&quot;&gt;\nhttp://imgsparrow.org/images/2015/02/22/info.png&lt;/a&gt;\n\nComplete name: Fast &amp; Furious 7 (2015) Hindi - S Cam - Rip - XviD - [1CD] - IcTv LotterY Exclusive.avi\nFormat: AVI\nFormat/Info: Audio Video Interleave\nFile size: 693 MiB\nDuration: 1h 43mn\nOverall bit rate: 937 Kbps\n\nVideo\nID: 0\nFormat: MPEG-4 Visual\nFormat profile: Advanced Simple@L5\nFormat settings, BVOP: 2\nFormat settings, QPel: No\nFormat settings, GMC: No warppoints\nFormat settings, Matrix: Default (H.263)\nCodec ID: XVID\nCodec ID/Hint: XviD\nDuration: 1h 43mn\nBit rate: 802 Kbps\nWidth: 640 pixels\nHeight: 272 pixels\nDisplay aspect ratio: 2.35:1\nFrame rate: 29.970 fps\nColor space: YUV\nChroma subsampling: 4:2:0\nBit depth: 8 bits\nScan type: Progressive\nCompression mode: Lossy\nBits/(Pixel*Frame): 0.154\nStream size: 593 MiB (86%)\nWriting library: XviD 1.2.1 (UTC 2008-12-04)\n\nAudio\nID: 1\nFormat: MPEG Audio\nFormat version: Version 1\nFormat profile: Layer 3\nMode: Joint stereo\nMode extension: MS Stereo\nCodec ID: 55\nCodec ID/Hint: MP3\nDuration: 1h 43mn\nBit rate mode: Constant\nBit rate: 128 Kbps\nChannel(s): 2 channels\nSampling rate: 48.0 KHz\nCompression mode: Lossy\nStream size: 94.7 MiB (14%)\nAlignment: Aligned on interleaves\nInterleave, duration: 133 ms (4.00 video frames)\nInterleave, preload duratio: 216 ms\nTitle: Fast and Furius 7 In Hindi_Title_01_01(1).avi_track_1_\nWriting library: LAME3.99r\nEncoding settings: -m j -V 4 -q 2 -lowpass 17 -b 128\n &lt;a href=&quot;\nhttp://imgsparrow.org/images/2015/02/22/screens.png&quot; rel=&quot;nofollow&quot; target=&quot;_NEW&quot;&gt;\nhttp://imgsparrow.org/images/2015/02/22/screens.png&lt;/a&gt;\n &lt;a href=&quot;\nhttp://imgsparrow.co/image/8L&quot; rel=&quot;nofollow&quot; target=&quot;_NEW&quot;&gt;\nhttp://imgsparrow.co/image/8L&lt;/a&gt; &lt;a href=&quot;\nhttp://imgsparrow.co/image/8N&quot; rel=&quot;nofollow&quot; target=&quot;_NEW&quot;&gt;\nhttp://imgsparrow.co/image/8N&lt;/a&gt; &lt;a href=&quot;\nhttp://imgsparrow.co/image/8t&quot; rel=&quot;nofollow&quot; target=&quot;_NEW&quot;&gt;\nhttp://imgsparrow.co/image/8t&lt;/a&gt; &lt;a href=&quot;\nhttp://imgsparrow.co/image/8E&quot; rel=&quot;nofollow&quot; target=&quot;_NEW&quot;&gt;\nhttp://imgsparrow.co/image/8E&lt;/a&gt; &lt;a href=&quot;\nhttp://imgsparrow.co/image/8J&quot; rel=&quot;nofollow&quot; target=&quot;_NEW&quot;&gt;\nhttp://imgsparrow.co/image/8J&lt;/a&gt; &lt;a href=&quot;\nhttp://imgsparrow.co/image/8U&quot; rel=&quot;nofollow&quot; target=&quot;_NEW&quot;&gt;\nhttp://imgsparrow.co/image/8U&lt;/a&gt; &lt;a href=&quot;\nhttp://imgsparrow.co/image/8u&quot; rel=&quot;nofollow&quot; target=&quot;_NEW&quot;&gt;\nhttp://imgsparrow.co/image/8u&lt;/a&gt; &lt;a href=&quot;\nhttp://imgsparrow.co/image/8w&quot; rel=&quot;nofollow&quot; target=&quot;_NEW&quot;&gt;\nhttp://imgsparrow.co/image/8w&lt;/a&gt; &lt;a href=&quot;\nhttp://imgsparrow.co/image/84&quot; rel=&quot;nofollow&quot; target=&quot;_NEW&quot;&gt;\nhttp://imgsparrow.co/image/84&lt;/a&gt;\n\n\nNote : -Credits to Original Uploader. I just shared it.\n &lt;a href=&quot;\nhttp://imgsparrow.org/images/2015/02/22/SPARROW.gif&quot; rel=&quot;nofollow&quot; target=&quot;_NEW&quot;&gt;\nhttp://imgsparrow.org/images/2015/02/22/SPARROW.gif&lt;/a&gt;",
  "parsed": {
    "xt": "urn:btih:d418a5e6e3ed8911e75bb08faaa376a8ba042530",
    "dn": "Fast &amp; Furious 7 (2015) - IcTv  Exclusive -={SPARROW}=-",
    "tr": [
      "udp://exodus.desync.com:6969",
      "udp://open.demonii.com:1337",
      "udp://tracker.coppersurfer.tk:6969",
      "udp://tracker.openbittorrent.com:80"
    ],
    "infoHash": "d418a5e6e3ed8911e75bb08faaa376a8ba042530",
    "infoHashBuffer": {
      "type": "Buffer",
      "data": [
        212,
        24,
        165,
        230,
        227,
        237,
        137,
        17,
        231,
        91,
        176,
        143,
        170,
        163,
        118,
        168,
        186,
        4,
        37,
        48
      ]
    },
    "name": "Fast &amp; Furious 7 (2015) - IcTv  Exclusive -={SPARROW}=-",
    "announce": [
      "udp://exodus.desync.com:6969",
      "udp://open.demonii.com:1337",
      "udp://tracker.coppersurfer.tk:6969",
      "udp://tracker.openbittorrent.com:80"
    ],
    "urlList": []
  },
  "previous": 35,
  "peers": 13,
  "last_updated": "2016-12-27T14:07:00.268Z"
}